<mxfile host="app.diagrams.net" modified="2024-02-01T17:52:00.118Z" agent="Mozilla/5.0 (Macintosh; Intel Mac OS X 10_15_7) AppleWebKit/537.36 (KHTML, like Gecko) Chrome/117.0.0.0 Safari/537.36" etag="6rXgANL9N0K5RcebdDnl" version="23.1.1" type="device">
  <diagram name="General Arch" id="YAruAL8vTFuDaf2O1UOh">
    <mxGraphModel dx="1434" dy="790" grid="1" gridSize="10" guides="1" tooltips="1" connect="1" arrows="1" fold="1" page="1" pageScale="1" pageWidth="827" pageHeight="1169" math="0" shadow="0">
      <root>
        <mxCell id="0" />
        <mxCell id="1" parent="0" />
        <mxCell id="gJauoqbGneYXJqvQxOEP-6" style="edgeStyle=orthogonalEdgeStyle;rounded=0;orthogonalLoop=1;jettySize=auto;html=1;" edge="1" parent="1" source="gJauoqbGneYXJqvQxOEP-2" target="gJauoqbGneYXJqvQxOEP-5">
          <mxGeometry relative="1" as="geometry" />
        </mxCell>
        <mxCell id="gJauoqbGneYXJqvQxOEP-2" value="Customer" style="shape=umlActor;verticalLabelPosition=bottom;verticalAlign=top;html=1;outlineConnect=0;" vertex="1" parent="1">
          <mxGeometry x="399" y="20" width="30" height="60" as="geometry" />
        </mxCell>
        <mxCell id="gJauoqbGneYXJqvQxOEP-10" style="edgeStyle=orthogonalEdgeStyle;rounded=0;orthogonalLoop=1;jettySize=auto;html=1;" edge="1" parent="1" source="gJauoqbGneYXJqvQxOEP-5" target="gJauoqbGneYXJqvQxOEP-9">
          <mxGeometry relative="1" as="geometry" />
        </mxCell>
        <mxCell id="gJauoqbGneYXJqvQxOEP-5" value="DNS A Record:&lt;br&gt;amazing.com -&amp;gt; Fastly Dedicated IP" style="rounded=1;whiteSpace=wrap;html=1;fillColor=#FFF2CC;" vertex="1" parent="1">
          <mxGeometry x="306" y="140" width="216" height="70" as="geometry" />
        </mxCell>
        <mxCell id="gJauoqbGneYXJqvQxOEP-15" style="edgeStyle=orthogonalEdgeStyle;rounded=0;orthogonalLoop=1;jettySize=auto;html=1;entryX=0.5;entryY=0;entryDx=0;entryDy=0;" edge="1" parent="1" source="gJauoqbGneYXJqvQxOEP-9" target="gJauoqbGneYXJqvQxOEP-11">
          <mxGeometry relative="1" as="geometry" />
        </mxCell>
        <mxCell id="gJauoqbGneYXJqvQxOEP-9" value="Fastly Dedicated IP points to deliver service" style="rounded=1;whiteSpace=wrap;html=1;" vertex="1" parent="1">
          <mxGeometry x="304" y="250" width="220" height="60" as="geometry" />
        </mxCell>
        <mxCell id="gJauoqbGneYXJqvQxOEP-17" style="edgeStyle=orthogonalEdgeStyle;rounded=0;orthogonalLoop=1;jettySize=auto;html=1;" edge="1" parent="1" source="gJauoqbGneYXJqvQxOEP-11" target="gJauoqbGneYXJqvQxOEP-16">
          <mxGeometry relative="1" as="geometry" />
        </mxCell>
        <mxCell id="gJauoqbGneYXJqvQxOEP-11" value="&amp;nbsp; &amp;nbsp; &amp;nbsp; Fastly Deliver Service" style="rounded=1;fillColor=#D4E1F5;fontColor=#333333;strokeColor=#666666;dashed=1;labelPosition=center;verticalLabelPosition=middle;align=left;verticalAlign=top;whiteSpace=wrap;html=1;labelBackgroundColor=none;horizontal=1;" vertex="1" parent="1">
          <mxGeometry x="192" y="340" width="444" height="200" as="geometry" />
        </mxCell>
        <mxCell id="gJauoqbGneYXJqvQxOEP-14" style="edgeStyle=orthogonalEdgeStyle;rounded=0;orthogonalLoop=1;jettySize=auto;html=1;" edge="1" parent="1" source="gJauoqbGneYXJqvQxOEP-12" target="gJauoqbGneYXJqvQxOEP-13">
          <mxGeometry relative="1" as="geometry" />
        </mxCell>
        <mxCell id="gJauoqbGneYXJqvQxOEP-12" value="Hits WAF: 1-2-1 association with deliver service" style="rounded=1;whiteSpace=wrap;html=1;" vertex="1" parent="1">
          <mxGeometry x="304" y="370" width="220" height="60" as="geometry" />
        </mxCell>
        <mxCell id="gJauoqbGneYXJqvQxOEP-13" value="Passes Request to compute service" style="rounded=1;whiteSpace=wrap;html=1;" vertex="1" parent="1">
          <mxGeometry x="304" y="470" width="220" height="60" as="geometry" />
        </mxCell>
        <mxCell id="gJauoqbGneYXJqvQxOEP-16" value="&amp;nbsp; &amp;nbsp; &amp;nbsp; &amp;nbsp; &amp;nbsp; &amp;nbsp; &amp;nbsp; &amp;nbsp; &amp;nbsp;Fastly Compute Service" style="rounded=1;fillColor=#E1D5E7;fontColor=#333333;strokeColor=#666666;dashed=1;labelPosition=center;verticalLabelPosition=middle;align=left;verticalAlign=top;whiteSpace=wrap;html=1;labelBackgroundColor=none;horizontal=1;" vertex="1" parent="1">
          <mxGeometry x="108" y="610" width="611" height="1090" as="geometry" />
        </mxCell>
        <mxCell id="gJauoqbGneYXJqvQxOEP-19" style="edgeStyle=orthogonalEdgeStyle;rounded=0;orthogonalLoop=1;jettySize=auto;html=1;" edge="1" parent="1" source="gJauoqbGneYXJqvQxOEP-18" target="gJauoqbGneYXJqvQxOEP-20">
          <mxGeometry relative="1" as="geometry">
            <mxPoint x="780" y="670" as="targetPoint" />
          </mxGeometry>
        </mxCell>
        <mxCell id="gJauoqbGneYXJqvQxOEP-90" style="edgeStyle=orthogonalEdgeStyle;rounded=0;orthogonalLoop=1;jettySize=auto;html=1;" edge="1" parent="1" source="gJauoqbGneYXJqvQxOEP-18" target="gJauoqbGneYXJqvQxOEP-44">
          <mxGeometry relative="1" as="geometry" />
        </mxCell>
        <mxCell id="gJauoqbGneYXJqvQxOEP-18" value="Reads a mapping for redirects and routes based on the x-forwarded-host header." style="rounded=1;whiteSpace=wrap;html=1;" vertex="1" parent="1">
          <mxGeometry x="291" y="640" width="246" height="60" as="geometry" />
        </mxCell>
        <mxCell id="gJauoqbGneYXJqvQxOEP-41" style="edgeStyle=orthogonalEdgeStyle;rounded=0;orthogonalLoop=1;jettySize=auto;html=1;" edge="1" parent="1" source="gJauoqbGneYXJqvQxOEP-20" target="gJauoqbGneYXJqvQxOEP-39">
          <mxGeometry relative="1" as="geometry" />
        </mxCell>
        <mxCell id="gJauoqbGneYXJqvQxOEP-20" value="Mapping Config Store" style="shape=cylinder3;whiteSpace=wrap;html=1;boundedLbl=1;backgroundOutline=1;size=15;fillColor=#E1D5E7;" vertex="1" parent="1">
          <mxGeometry x="740" y="630" width="60" height="80" as="geometry" />
        </mxCell>
        <mxCell id="gJauoqbGneYXJqvQxOEP-34" style="edgeStyle=orthogonalEdgeStyle;rounded=0;orthogonalLoop=1;jettySize=auto;html=1;" edge="1" parent="1" source="gJauoqbGneYXJqvQxOEP-21" target="gJauoqbGneYXJqvQxOEP-25">
          <mxGeometry relative="1" as="geometry" />
        </mxCell>
        <mxCell id="gJauoqbGneYXJqvQxOEP-21" value="Altitude Dev" style="shape=umlActor;verticalLabelPosition=bottom;verticalAlign=top;html=1;outlineConnect=0;" vertex="1" parent="1">
          <mxGeometry x="1060" y="160" width="30" height="60" as="geometry" />
        </mxCell>
        <mxCell id="gJauoqbGneYXJqvQxOEP-28" value="&lt;div style=&quot;background-color: rgb(31, 31, 31); line-height: 18px;&quot;&gt;&lt;div style=&quot;&quot;&gt;&lt;font face=&quot;Menlo, Monaco, Courier New, monospace&quot; color=&quot;#cccccc&quot;&gt;{&lt;/font&gt;&lt;/div&gt;&lt;div style=&quot;&quot;&gt;&lt;font face=&quot;Menlo, Monaco, Courier New, monospace&quot; color=&quot;#cccccc&quot;&gt;&lt;span style=&quot;font-size: 12px;&quot;&gt;&amp;nbsp; &amp;nbsp; &quot;/statics&quot;: {&lt;/span&gt;&lt;/font&gt;&lt;/div&gt;&lt;div style=&quot;&quot;&gt;&lt;font face=&quot;Menlo, Monaco, Courier New, monospace&quot; color=&quot;#cccccc&quot;&gt;&lt;span style=&quot;font-size: 12px;&quot;&gt;&amp;nbsp; &amp;nbsp; &amp;nbsp; &amp;nbsp; &quot;host&quot;: &quot;statics-dcef54611c2af726.s3.eu-west-2.amazonaws.com&quot;,&lt;/span&gt;&lt;/font&gt;&lt;/div&gt;&lt;div style=&quot;&quot;&gt;&lt;font face=&quot;Menlo, Monaco, Courier New, monospace&quot; color=&quot;#cccccc&quot;&gt;&lt;span style=&quot;font-size: 12px;&quot;&gt;&amp;nbsp; &amp;nbsp; &amp;nbsp; &amp;nbsp; &quot;preservePathPrefix&quot;: false,&lt;/span&gt;&lt;/font&gt;&lt;/div&gt;&lt;div style=&quot;&quot;&gt;&lt;font face=&quot;Menlo, Monaco, Courier New, monospace&quot; color=&quot;#cccccc&quot;&gt;&lt;span style=&quot;font-size: 12px;&quot;&gt;&amp;nbsp; &amp;nbsp; &amp;nbsp; &amp;nbsp; &quot;cacheKey&quot;: {&lt;/span&gt;&lt;/font&gt;&lt;/div&gt;&lt;div style=&quot;&quot;&gt;&lt;font face=&quot;Menlo, Monaco, Courier New, monospace&quot; color=&quot;#cccccc&quot;&gt;&lt;span style=&quot;font-size: 12px;&quot;&gt;&amp;nbsp; &amp;nbsp; &amp;nbsp; &amp;nbsp; &amp;nbsp; &amp;nbsp; &quot;header&quot;: [],&lt;/span&gt;&lt;/font&gt;&lt;/div&gt;&lt;div style=&quot;&quot;&gt;&lt;font face=&quot;Menlo, Monaco, Courier New, monospace&quot; color=&quot;#cccccc&quot;&gt;&lt;span style=&quot;font-size: 12px;&quot;&gt;&amp;nbsp; &amp;nbsp; &amp;nbsp; &amp;nbsp; &amp;nbsp; &amp;nbsp; &quot;cookie&quot;: [&quot;Opaque_coggles_en&quot;]&lt;/span&gt;&lt;/font&gt;&lt;/div&gt;&lt;div style=&quot;&quot;&gt;&lt;font face=&quot;Menlo, Monaco, Courier New, monospace&quot; color=&quot;#cccccc&quot;&gt;&lt;span style=&quot;font-size: 12px;&quot;&gt;&amp;nbsp; &amp;nbsp; &amp;nbsp; &amp;nbsp; },&lt;/span&gt;&lt;/font&gt;&lt;/div&gt;&lt;div style=&quot;&quot;&gt;&lt;font face=&quot;Menlo, Monaco, Courier New, monospace&quot; color=&quot;#cccccc&quot;&gt;&lt;span style=&quot;font-size: 12px;&quot;&gt;&amp;nbsp; &amp;nbsp; &amp;nbsp; &amp;nbsp; &quot;appendPathPrefix&quot;: &quot;/foo&quot;,&lt;/span&gt;&lt;/font&gt;&lt;/div&gt;&lt;div style=&quot;&quot;&gt;&lt;font face=&quot;Menlo, Monaco, Courier New, monospace&quot; color=&quot;#cccccc&quot;&gt;&lt;span style=&quot;font-size: 12px;&quot;&gt;&amp;nbsp; &amp;nbsp; &amp;nbsp; &amp;nbsp; &quot;priority&quot;: 1&lt;/span&gt;&lt;/font&gt;&lt;span style=&quot;font-size: 12px; color: rgb(204, 204, 204); font-family: Menlo, Monaco, &amp;quot;Courier New&amp;quot;, monospace;&quot;&gt;&amp;nbsp; &amp;nbsp;&lt;/span&gt;&lt;/div&gt;&lt;div style=&quot;&quot;&gt;&lt;span style=&quot;font-size: 12px; color: rgb(204, 204, 204); font-family: Menlo, Monaco, &amp;quot;Courier New&amp;quot;, monospace;&quot;&gt;&amp;nbsp; &amp;nbsp; },&lt;/span&gt;&lt;/div&gt;&lt;div style=&quot;&quot;&gt;&lt;font face=&quot;Menlo, Monaco, Courier New, monospace&quot; color=&quot;#cccccc&quot;&gt;&lt;span style=&quot;font-size: 12px;&quot;&gt;&amp;nbsp; &amp;nbsp; &quot;/images&quot;: {&lt;/span&gt;&lt;/font&gt;&lt;/div&gt;&lt;div style=&quot;&quot;&gt;&lt;font face=&quot;Menlo, Monaco, Courier New, monospace&quot; color=&quot;#cccccc&quot;&gt;&lt;span style=&quot;font-size: 12px;&quot;&gt;&amp;nbsp; &amp;nbsp; &amp;nbsp; &amp;nbsp; &quot;host&quot;: &quot;4e5bdc.thgimages.com&quot;,&lt;/span&gt;&lt;/font&gt;&lt;/div&gt;&lt;div style=&quot;&quot;&gt;&lt;font face=&quot;Menlo, Monaco, Courier New, monospace&quot; color=&quot;#cccccc&quot;&gt;&lt;span style=&quot;font-size: 12px;&quot;&gt;&amp;nbsp; &amp;nbsp; &amp;nbsp; &amp;nbsp; &quot;preservePathPrefix&quot;: false,&lt;/span&gt;&lt;/font&gt;&lt;/div&gt;&lt;div style=&quot;&quot;&gt;&lt;font face=&quot;Menlo, Monaco, Courier New, monospace&quot; color=&quot;#cccccc&quot;&gt;&amp;nbsp; &amp;nbsp; &amp;nbsp; &amp;nbsp; &amp;nbsp;&quot;&lt;/font&gt;&lt;span style=&quot;color: rgb(204, 204, 204); font-family: Menlo, Monaco, &amp;quot;Courier New&amp;quot;, monospace; font-size: 12px;&quot;&gt;cacheKey&lt;/span&gt;&lt;font face=&quot;Menlo, Monaco, Courier New, monospace&quot; color=&quot;#cccccc&quot;&gt;&lt;span style=&quot;font-size: 12px;&quot;&gt;&quot;: {&lt;/span&gt;&lt;/font&gt;&lt;/div&gt;&lt;div style=&quot;&quot;&gt;&lt;font face=&quot;Menlo, Monaco, Courier New, monospace&quot; color=&quot;#cccccc&quot;&gt;&lt;span style=&quot;font-size: 12px;&quot;&gt;&amp;nbsp; &amp;nbsp; &amp;nbsp; &amp;nbsp; &amp;nbsp; &amp;nbsp; &quot;header&quot;: [],&lt;/span&gt;&lt;/font&gt;&lt;/div&gt;&lt;div style=&quot;&quot;&gt;&lt;font face=&quot;Menlo, Monaco, Courier New, monospace&quot; color=&quot;#cccccc&quot;&gt;&lt;span style=&quot;font-size: 12px;&quot;&gt;&amp;nbsp; &amp;nbsp; &amp;nbsp; &amp;nbsp; &amp;nbsp; &amp;nbsp; &quot;cookie&quot;: []&lt;/span&gt;&lt;/font&gt;&lt;/div&gt;&lt;div style=&quot;&quot;&gt;&lt;font face=&quot;Menlo, Monaco, Courier New, monospace&quot; color=&quot;#cccccc&quot;&gt;&lt;span style=&quot;font-size: 12px;&quot;&gt;&amp;nbsp; &amp;nbsp; &amp;nbsp; &amp;nbsp; },&lt;/span&gt;&lt;/font&gt;&lt;/div&gt;&lt;div style=&quot;&quot;&gt;&lt;font face=&quot;Menlo, Monaco, Courier New, monospace&quot; color=&quot;#cccccc&quot;&gt;&lt;span style=&quot;font-size: 12px;&quot;&gt;&amp;nbsp; &amp;nbsp; &amp;nbsp; &amp;nbsp; &quot;appendPathPrefix&quot;: &quot;/foo&quot;,&lt;/span&gt;&lt;/font&gt;&lt;/div&gt;&lt;div style=&quot;&quot;&gt;&lt;font face=&quot;Menlo, Monaco, Courier New, monospace&quot; color=&quot;#cccccc&quot;&gt;&lt;span style=&quot;font-size: 12px;&quot;&gt;&amp;nbsp; &amp;nbsp; &amp;nbsp; &amp;nbsp; &quot;priority&quot;: 2&lt;/span&gt;&lt;/font&gt;&lt;/div&gt;&lt;div style=&quot;&quot;&gt;&lt;font face=&quot;Menlo, Monaco, Courier New, monospace&quot; color=&quot;#cccccc&quot;&gt;&lt;span style=&quot;font-size: 12px;&quot;&gt;&amp;nbsp; &amp;nbsp; },&lt;/span&gt;&lt;/font&gt;&lt;/div&gt;&lt;div style=&quot;&quot;&gt;&lt;font face=&quot;Menlo, Monaco, Courier New, monospace&quot; color=&quot;#cccccc&quot;&gt;&lt;span style=&quot;font-size: 12px;&quot;&gt;&amp;nbsp; &amp;nbsp; &quot;/&quot;: {&lt;/span&gt;&lt;/font&gt;&lt;/div&gt;&lt;div style=&quot;&quot;&gt;&lt;font face=&quot;Menlo, Monaco, Courier New, monospace&quot; color=&quot;#cccccc&quot;&gt;&lt;span style=&quot;font-size: 12px;&quot;&gt;&amp;nbsp; &amp;nbsp; &amp;nbsp; &amp;nbsp; &quot;host&quot;: &quot;b3d83d9f.cf-thgaltitude.com&quot;,&lt;/span&gt;&lt;/font&gt;&lt;/div&gt;&lt;div style=&quot;&quot;&gt;&lt;font face=&quot;Menlo, Monaco, Courier New, monospace&quot; color=&quot;#cccccc&quot;&gt;&lt;span style=&quot;font-size: 12px;&quot;&gt;&amp;nbsp; &amp;nbsp; &amp;nbsp; &amp;nbsp; &quot;preservePathPrefix&quot;: false,&lt;/span&gt;&lt;/font&gt;&lt;/div&gt;&lt;div style=&quot;&quot;&gt;&lt;font face=&quot;Menlo, Monaco, Courier New, monospace&quot; color=&quot;#cccccc&quot;&gt;&amp;nbsp; &amp;nbsp; &amp;nbsp; &amp;nbsp; &amp;nbsp;&quot;&lt;/font&gt;&lt;span style=&quot;color: rgb(204, 204, 204); font-family: Menlo, Monaco, &amp;quot;Courier New&amp;quot;, monospace; font-size: 12px;&quot;&gt;cacheKey&lt;/span&gt;&lt;font face=&quot;Menlo, Monaco, Courier New, monospace&quot; color=&quot;#cccccc&quot;&gt;&lt;span style=&quot;font-size: 12px;&quot;&gt;&quot;: {&lt;/span&gt;&lt;/font&gt;&lt;/div&gt;&lt;div style=&quot;&quot;&gt;&lt;font face=&quot;Menlo, Monaco, Courier New, monospace&quot; color=&quot;#cccccc&quot;&gt;&lt;span style=&quot;font-size: 12px;&quot;&gt;&amp;nbsp; &amp;nbsp; &amp;nbsp; &amp;nbsp; &amp;nbsp; &amp;nbsp; &quot;header&quot;: [],&lt;/span&gt;&lt;/font&gt;&lt;/div&gt;&lt;div style=&quot;&quot;&gt;&lt;font face=&quot;Menlo, Monaco, Courier New, monospace&quot; color=&quot;#cccccc&quot;&gt;&lt;span style=&quot;font-size: 12px;&quot;&gt;&amp;nbsp; &amp;nbsp; &amp;nbsp; &amp;nbsp; &amp;nbsp; &amp;nbsp; &quot;cookie&quot;: []&lt;/span&gt;&lt;/font&gt;&lt;/div&gt;&lt;div style=&quot;&quot;&gt;&lt;font face=&quot;Menlo, Monaco, Courier New, monospace&quot; color=&quot;#cccccc&quot;&gt;&lt;span style=&quot;font-size: 12px;&quot;&gt;&amp;nbsp; &amp;nbsp; &amp;nbsp; &amp;nbsp; },&lt;/span&gt;&lt;/font&gt;&lt;/div&gt;&lt;div style=&quot;&quot;&gt;&lt;font face=&quot;Menlo, Monaco, Courier New, monospace&quot; color=&quot;#cccccc&quot;&gt;&lt;span style=&quot;font-size: 12px;&quot;&gt;&amp;nbsp; &amp;nbsp; &amp;nbsp; &amp;nbsp; &quot;appendPathPrefix&quot;: &quot;/foo&quot;,&lt;/span&gt;&lt;/font&gt;&lt;/div&gt;&lt;div style=&quot;&quot;&gt;&lt;font face=&quot;Menlo, Monaco, Courier New, monospace&quot; color=&quot;#cccccc&quot;&gt;&lt;span style=&quot;font-size: 12px;&quot;&gt;&amp;nbsp; &amp;nbsp; &amp;nbsp; &amp;nbsp; &quot;priority&quot;: 3&lt;/span&gt;&lt;/font&gt;&lt;/div&gt;&lt;div style=&quot;&quot;&gt;&lt;font face=&quot;Menlo, Monaco, Courier New, monospace&quot; color=&quot;#cccccc&quot;&gt;&lt;span style=&quot;font-size: 12px;&quot;&gt;&amp;nbsp; &amp;nbsp; }&lt;/span&gt;&lt;/font&gt;&lt;/div&gt;&lt;div style=&quot;&quot;&gt;&lt;font face=&quot;Menlo, Monaco, Courier New, monospace&quot; color=&quot;#cccccc&quot;&gt;&lt;span style=&quot;font-size: 12px;&quot;&gt;}&lt;/span&gt;&lt;/font&gt;&lt;/div&gt;&lt;/div&gt;" style="edgeStyle=orthogonalEdgeStyle;rounded=0;orthogonalLoop=1;jettySize=auto;html=1;align=left;" edge="1" parent="1" source="gJauoqbGneYXJqvQxOEP-25">
          <mxGeometry x="1" relative="1" as="geometry">
            <mxPoint x="1330" y="410" as="targetPoint" />
            <mxPoint as="offset" />
          </mxGeometry>
        </mxCell>
        <mxCell id="gJauoqbGneYXJqvQxOEP-33" style="edgeStyle=orthogonalEdgeStyle;rounded=0;orthogonalLoop=1;jettySize=auto;html=1;" edge="1" parent="1" source="gJauoqbGneYXJqvQxOEP-25" target="gJauoqbGneYXJqvQxOEP-29">
          <mxGeometry relative="1" as="geometry" />
        </mxCell>
        <mxCell id="gJauoqbGneYXJqvQxOEP-25" value="Reads altitude.yaml and the altitude API DB to create the routes config block." style="rounded=1;whiteSpace=wrap;html=1;fillColor=#F8CECC;" vertex="1" parent="1">
          <mxGeometry x="957.5" y="380" width="235" height="60" as="geometry" />
        </mxCell>
        <mxCell id="gJauoqbGneYXJqvQxOEP-35" style="edgeStyle=orthogonalEdgeStyle;rounded=0;orthogonalLoop=1;jettySize=auto;html=1;" edge="1" parent="1" source="gJauoqbGneYXJqvQxOEP-26" target="gJauoqbGneYXJqvQxOEP-20">
          <mxGeometry relative="1" as="geometry" />
        </mxCell>
        <mxCell id="TUgJDQBMJ79ftDVPmQGl-3" style="edgeStyle=orthogonalEdgeStyle;rounded=0;orthogonalLoop=1;jettySize=auto;html=1;" edge="1" parent="1" source="gJauoqbGneYXJqvQxOEP-26" target="TUgJDQBMJ79ftDVPmQGl-1">
          <mxGeometry relative="1" as="geometry" />
        </mxCell>
        <mxCell id="gJauoqbGneYXJqvQxOEP-26" value="Checks what domains are associated with deployment. Update the mapping for each domain with the store to point at the new route hash." style="rounded=1;whiteSpace=wrap;html=1;fillColor=#F8CECC;" vertex="1" parent="1">
          <mxGeometry x="900" y="640" width="350" height="60" as="geometry" />
        </mxCell>
        <mxCell id="gJauoqbGneYXJqvQxOEP-32" style="edgeStyle=orthogonalEdgeStyle;rounded=0;orthogonalLoop=1;jettySize=auto;html=1;" edge="1" parent="1" source="gJauoqbGneYXJqvQxOEP-29" target="gJauoqbGneYXJqvQxOEP-26">
          <mxGeometry relative="1" as="geometry" />
        </mxCell>
        <mxCell id="TUgJDQBMJ79ftDVPmQGl-8" style="edgeStyle=orthogonalEdgeStyle;rounded=0;orthogonalLoop=1;jettySize=auto;html=1;" edge="1" parent="1" source="gJauoqbGneYXJqvQxOEP-29" target="gJauoqbGneYXJqvQxOEP-30">
          <mxGeometry relative="1" as="geometry" />
        </mxCell>
        <mxCell id="gJauoqbGneYXJqvQxOEP-29" value="Store this json within the KV store with the object hash as the key." style="rounded=1;whiteSpace=wrap;html=1;fillColor=#F8CECC;" vertex="1" parent="1">
          <mxGeometry x="957.5" y="510" width="235" height="60" as="geometry" />
        </mxCell>
        <mxCell id="gJauoqbGneYXJqvQxOEP-30" value="Routes KV Store" style="shape=cylinder3;whiteSpace=wrap;html=1;boundedLbl=1;backgroundOutline=1;size=15;fillColor=#E1D5E7;" vertex="1" parent="1">
          <mxGeometry x="827" y="890" width="60" height="80" as="geometry" />
        </mxCell>
        <mxCell id="gJauoqbGneYXJqvQxOEP-75" style="edgeStyle=orthogonalEdgeStyle;rounded=0;orthogonalLoop=1;jettySize=auto;html=1;" edge="1" parent="1" source="gJauoqbGneYXJqvQxOEP-36" target="gJauoqbGneYXJqvQxOEP-63">
          <mxGeometry relative="1" as="geometry" />
        </mxCell>
        <mxCell id="TUgJDQBMJ79ftDVPmQGl-6" style="edgeStyle=orthogonalEdgeStyle;rounded=0;orthogonalLoop=1;jettySize=auto;html=1;" edge="1" parent="1" target="TUgJDQBMJ79ftDVPmQGl-5">
          <mxGeometry relative="1" as="geometry">
            <mxPoint x="590" y="930" as="sourcePoint" />
          </mxGeometry>
        </mxCell>
        <mxCell id="gJauoqbGneYXJqvQxOEP-36" value="Reads from the redirect KV Store" style="rounded=1;whiteSpace=wrap;html=1;" vertex="1" parent="1">
          <mxGeometry x="440" y="910" width="150" height="60" as="geometry" />
        </mxCell>
        <mxCell id="gJauoqbGneYXJqvQxOEP-39" value="This could contain the redirect mapping as well or we could have a secondary config store for this?" style="rounded=1;whiteSpace=wrap;html=1;dashed=1;" vertex="1" parent="1">
          <mxGeometry x="686.5" y="520" width="167" height="65" as="geometry" />
        </mxCell>
        <mxCell id="gJauoqbGneYXJqvQxOEP-54" style="edgeStyle=orthogonalEdgeStyle;rounded=0;orthogonalLoop=1;jettySize=auto;html=1;" edge="1" parent="1" source="gJauoqbGneYXJqvQxOEP-44" target="gJauoqbGneYXJqvQxOEP-49">
          <mxGeometry relative="1" as="geometry" />
        </mxCell>
        <mxCell id="gJauoqbGneYXJqvQxOEP-44" value="Creates cache key and checks if there is a cache hit.&lt;br&gt;Cache Key includes: cache key object from store, path and host" style="rounded=1;whiteSpace=wrap;html=1;" vertex="1" parent="1">
          <mxGeometry x="291" y="720" width="246" height="60" as="geometry" />
        </mxCell>
        <mxCell id="gJauoqbGneYXJqvQxOEP-56" style="edgeStyle=orthogonalEdgeStyle;rounded=0;orthogonalLoop=1;jettySize=auto;html=1;" edge="1" parent="1" source="gJauoqbGneYXJqvQxOEP-49" target="gJauoqbGneYXJqvQxOEP-55">
          <mxGeometry relative="1" as="geometry" />
        </mxCell>
        <mxCell id="gJauoqbGneYXJqvQxOEP-59" value="Yes" style="edgeLabel;html=1;align=center;verticalAlign=middle;resizable=0;points=[];" vertex="1" connectable="0" parent="gJauoqbGneYXJqvQxOEP-56">
          <mxGeometry x="-0.3743" y="1" relative="1" as="geometry">
            <mxPoint as="offset" />
          </mxGeometry>
        </mxCell>
        <mxCell id="gJauoqbGneYXJqvQxOEP-62" style="edgeStyle=orthogonalEdgeStyle;rounded=0;orthogonalLoop=1;jettySize=auto;html=1;exitX=1;exitY=0.5;exitDx=0;exitDy=0;entryX=0.5;entryY=0;entryDx=0;entryDy=0;" edge="1" parent="1" source="gJauoqbGneYXJqvQxOEP-49" target="gJauoqbGneYXJqvQxOEP-36">
          <mxGeometry relative="1" as="geometry" />
        </mxCell>
        <mxCell id="gJauoqbGneYXJqvQxOEP-49" value="Cache Hit?" style="rhombus;whiteSpace=wrap;html=1;" vertex="1" parent="1">
          <mxGeometry x="374" y="800" width="80" height="80" as="geometry" />
        </mxCell>
        <mxCell id="gJauoqbGneYXJqvQxOEP-55" value="Returns cached result" style="rounded=1;whiteSpace=wrap;html=1;" vertex="1" parent="1">
          <mxGeometry x="230" y="910" width="70" height="60" as="geometry" />
        </mxCell>
        <mxCell id="gJauoqbGneYXJqvQxOEP-70" style="edgeStyle=orthogonalEdgeStyle;rounded=0;orthogonalLoop=1;jettySize=auto;html=1;" edge="1" parent="1" source="gJauoqbGneYXJqvQxOEP-63" target="gJauoqbGneYXJqvQxOEP-64">
          <mxGeometry relative="1" as="geometry" />
        </mxCell>
        <mxCell id="gJauoqbGneYXJqvQxOEP-71" value="Redirect" style="edgeLabel;html=1;align=center;verticalAlign=middle;resizable=0;points=[];" vertex="1" connectable="0" parent="gJauoqbGneYXJqvQxOEP-70">
          <mxGeometry x="0.5482" y="-1" relative="1" as="geometry">
            <mxPoint x="-15" y="31" as="offset" />
          </mxGeometry>
        </mxCell>
        <mxCell id="gJauoqbGneYXJqvQxOEP-72" style="edgeStyle=orthogonalEdgeStyle;rounded=0;orthogonalLoop=1;jettySize=auto;html=1;" edge="1" parent="1" source="gJauoqbGneYXJqvQxOEP-63" target="gJauoqbGneYXJqvQxOEP-65">
          <mxGeometry relative="1" as="geometry" />
        </mxCell>
        <mxCell id="gJauoqbGneYXJqvQxOEP-73" value="Rewrite" style="edgeLabel;html=1;align=center;verticalAlign=middle;resizable=0;points=[];" vertex="1" connectable="0" parent="gJauoqbGneYXJqvQxOEP-72">
          <mxGeometry x="0.6464" y="2" relative="1" as="geometry">
            <mxPoint as="offset" />
          </mxGeometry>
        </mxCell>
        <mxCell id="gJauoqbGneYXJqvQxOEP-63" value="Result?" style="rhombus;whiteSpace=wrap;html=1;" vertex="1" parent="1">
          <mxGeometry x="475" y="990" width="80" height="80" as="geometry" />
        </mxCell>
        <mxCell id="gJauoqbGneYXJqvQxOEP-64" value="Return 301/302 with location specified" style="rounded=1;whiteSpace=wrap;html=1;" vertex="1" parent="1">
          <mxGeometry x="156" y="1090" width="94" height="60" as="geometry" />
        </mxCell>
        <mxCell id="gJauoqbGneYXJqvQxOEP-69" style="edgeStyle=orthogonalEdgeStyle;rounded=0;orthogonalLoop=1;jettySize=auto;html=1;exitX=0.5;exitY=1;exitDx=0;exitDy=0;" edge="1" parent="1" source="gJauoqbGneYXJqvQxOEP-65" target="gJauoqbGneYXJqvQxOEP-66">
          <mxGeometry relative="1" as="geometry" />
        </mxCell>
        <mxCell id="gJauoqbGneYXJqvQxOEP-65" value="Update request to new host, path and params" style="rounded=1;whiteSpace=wrap;html=1;" vertex="1" parent="1">
          <mxGeometry x="279" y="1090" width="150" height="60" as="geometry" />
        </mxCell>
        <mxCell id="gJauoqbGneYXJqvQxOEP-68" style="edgeStyle=orthogonalEdgeStyle;rounded=0;orthogonalLoop=1;jettySize=auto;html=1;" edge="1" parent="1" source="gJauoqbGneYXJqvQxOEP-66" target="gJauoqbGneYXJqvQxOEP-67">
          <mxGeometry relative="1" as="geometry" />
        </mxCell>
        <mxCell id="gJauoqbGneYXJqvQxOEP-66" value="Create dynamic backend for new host" style="rounded=1;whiteSpace=wrap;html=1;" vertex="1" parent="1">
          <mxGeometry x="279" y="1169" width="150" height="60" as="geometry" />
        </mxCell>
        <mxCell id="gJauoqbGneYXJqvQxOEP-67" value="Send request to origin and return response" style="rounded=1;whiteSpace=wrap;html=1;" vertex="1" parent="1">
          <mxGeometry x="279" y="1250" width="150" height="60" as="geometry" />
        </mxCell>
        <mxCell id="gJauoqbGneYXJqvQxOEP-76" style="edgeStyle=orthogonalEdgeStyle;rounded=0;orthogonalLoop=1;jettySize=auto;html=1;entryX=1;entryY=0.5;entryDx=0;entryDy=0;startArrow=classic;startFill=1;dashed=1;" edge="1" parent="1" source="gJauoqbGneYXJqvQxOEP-74" target="gJauoqbGneYXJqvQxOEP-36">
          <mxGeometry relative="1" as="geometry" />
        </mxCell>
        <mxCell id="gJauoqbGneYXJqvQxOEP-77" value="In parallel" style="edgeLabel;html=1;align=center;verticalAlign=middle;resizable=0;points=[];" vertex="1" connectable="0" parent="gJauoqbGneYXJqvQxOEP-76">
          <mxGeometry x="-0.0105" y="1" relative="1" as="geometry">
            <mxPoint as="offset" />
          </mxGeometry>
        </mxCell>
        <mxCell id="gJauoqbGneYXJqvQxOEP-83" style="edgeStyle=orthogonalEdgeStyle;rounded=0;orthogonalLoop=1;jettySize=auto;html=1;" edge="1" parent="1" source="gJauoqbGneYXJqvQxOEP-74" target="gJauoqbGneYXJqvQxOEP-79">
          <mxGeometry relative="1" as="geometry" />
        </mxCell>
        <mxCell id="TUgJDQBMJ79ftDVPmQGl-7" style="edgeStyle=orthogonalEdgeStyle;rounded=0;orthogonalLoop=1;jettySize=auto;html=1;" edge="1" parent="1" source="gJauoqbGneYXJqvQxOEP-74" target="gJauoqbGneYXJqvQxOEP-30">
          <mxGeometry relative="1" as="geometry" />
        </mxCell>
        <mxCell id="gJauoqbGneYXJqvQxOEP-74" value="Reads from the routes KV store" style="rounded=1;whiteSpace=wrap;html=1;" vertex="1" parent="1">
          <mxGeometry x="555" y="1090" width="150" height="60" as="geometry" />
        </mxCell>
        <mxCell id="gJauoqbGneYXJqvQxOEP-78" value="Return Bad Request" style="rounded=1;whiteSpace=wrap;html=1;" vertex="1" parent="1">
          <mxGeometry x="440" y="1290" width="75" height="60" as="geometry" />
        </mxCell>
        <mxCell id="gJauoqbGneYXJqvQxOEP-88" style="edgeStyle=orthogonalEdgeStyle;rounded=0;orthogonalLoop=1;jettySize=auto;html=1;" edge="1" parent="1" source="gJauoqbGneYXJqvQxOEP-79" target="gJauoqbGneYXJqvQxOEP-78">
          <mxGeometry relative="1" as="geometry" />
        </mxCell>
        <mxCell id="gJauoqbGneYXJqvQxOEP-89" value="No" style="edgeLabel;html=1;align=center;verticalAlign=middle;resizable=0;points=[];" vertex="1" connectable="0" parent="gJauoqbGneYXJqvQxOEP-88">
          <mxGeometry x="0.6822" y="-1" relative="1" as="geometry">
            <mxPoint as="offset" />
          </mxGeometry>
        </mxCell>
        <mxCell id="TUgJDQBMJ79ftDVPmQGl-13" style="edgeStyle=orthogonalEdgeStyle;rounded=0;orthogonalLoop=1;jettySize=auto;html=1;" edge="1" parent="1" source="gJauoqbGneYXJqvQxOEP-79" target="TUgJDQBMJ79ftDVPmQGl-11">
          <mxGeometry relative="1" as="geometry" />
        </mxCell>
        <mxCell id="TUgJDQBMJ79ftDVPmQGl-14" value="Yes" style="edgeLabel;html=1;align=center;verticalAlign=middle;resizable=0;points=[];" vertex="1" connectable="0" parent="TUgJDQBMJ79ftDVPmQGl-13">
          <mxGeometry x="-0.32" relative="1" as="geometry">
            <mxPoint as="offset" />
          </mxGeometry>
        </mxCell>
        <mxCell id="gJauoqbGneYXJqvQxOEP-79" value="Route Found?" style="rhombus;whiteSpace=wrap;html=1;" vertex="1" parent="1">
          <mxGeometry x="590" y="1180" width="80" height="80" as="geometry" />
        </mxCell>
        <mxCell id="gJauoqbGneYXJqvQxOEP-85" style="edgeStyle=orthogonalEdgeStyle;rounded=0;orthogonalLoop=1;jettySize=auto;html=1;" edge="1" parent="1" source="gJauoqbGneYXJqvQxOEP-80" target="gJauoqbGneYXJqvQxOEP-81">
          <mxGeometry relative="1" as="geometry" />
        </mxCell>
        <mxCell id="gJauoqbGneYXJqvQxOEP-80" value="Update request to point to new host" style="rounded=1;whiteSpace=wrap;html=1;" vertex="1" parent="1">
          <mxGeometry x="340" y="1440" width="165" height="60" as="geometry" />
        </mxCell>
        <mxCell id="TUgJDQBMJ79ftDVPmQGl-17" style="edgeStyle=orthogonalEdgeStyle;rounded=0;orthogonalLoop=1;jettySize=auto;html=1;" edge="1" parent="1" source="gJauoqbGneYXJqvQxOEP-81" target="gJauoqbGneYXJqvQxOEP-82">
          <mxGeometry relative="1" as="geometry" />
        </mxCell>
        <mxCell id="gJauoqbGneYXJqvQxOEP-81" value="Updates path based on preservePathPrefix and appendPathPrefix" style="rounded=1;whiteSpace=wrap;html=1;" vertex="1" parent="1">
          <mxGeometry x="340" y="1530" width="165" height="60" as="geometry" />
        </mxCell>
        <mxCell id="gJauoqbGneYXJqvQxOEP-82" value="Send request to origin and return response" style="rounded=1;whiteSpace=wrap;html=1;" vertex="1" parent="1">
          <mxGeometry x="340" y="1610" width="165" height="60" as="geometry" />
        </mxCell>
        <mxCell id="TUgJDQBMJ79ftDVPmQGl-36" style="edgeStyle=orthogonalEdgeStyle;rounded=0;orthogonalLoop=1;jettySize=auto;html=1;" edge="1" parent="1" source="TUgJDQBMJ79ftDVPmQGl-1" target="TUgJDQBMJ79ftDVPmQGl-19">
          <mxGeometry relative="1" as="geometry" />
        </mxCell>
        <mxCell id="TUgJDQBMJ79ftDVPmQGl-1" value="For the hashed altitude domain, create/edit AWS route 53 record to be an A record pointing to deliver service (using script).&lt;br&gt;In this way, migration should have no down time." style="rounded=1;whiteSpace=wrap;html=1;fillColor=#FFF2CC;" vertex="1" parent="1">
          <mxGeometry x="900" y="740" width="350" height="60" as="geometry" />
        </mxCell>
        <mxCell id="TUgJDQBMJ79ftDVPmQGl-24" style="edgeStyle=orthogonalEdgeStyle;rounded=0;orthogonalLoop=1;jettySize=auto;html=1;" edge="1" parent="1" source="TUgJDQBMJ79ftDVPmQGl-2" target="TUgJDQBMJ79ftDVPmQGl-21">
          <mxGeometry relative="1" as="geometry" />
        </mxCell>
        <mxCell id="TUgJDQBMJ79ftDVPmQGl-2" value="Deliver service removed" style="rounded=1;whiteSpace=wrap;html=1;fillColor=#F8CECC;" vertex="1" parent="1">
          <mxGeometry x="920" y="1060" width="110" height="50" as="geometry" />
        </mxCell>
        <mxCell id="TUgJDQBMJ79ftDVPmQGl-5" value="Redirects KV Store" style="shape=cylinder3;whiteSpace=wrap;html=1;boundedLbl=1;backgroundOutline=1;size=15;fillColor=#E1D5E7;" vertex="1" parent="1">
          <mxGeometry x="740" y="890" width="60" height="80" as="geometry" />
        </mxCell>
        <mxCell id="TUgJDQBMJ79ftDVPmQGl-9" value="&amp;nbsp; &amp;nbsp; &amp;nbsp; Fastly Deliver Service" style="rounded=1;fillColor=#D4E1F5;fontColor=#333333;strokeColor=#666666;dashed=1;labelPosition=center;verticalLabelPosition=middle;align=left;verticalAlign=top;whiteSpace=wrap;html=1;labelBackgroundColor=none;horizontal=1;" vertex="1" parent="1">
          <mxGeometry x="481" y="1730" width="298" height="200" as="geometry" />
        </mxCell>
        <mxCell id="TUgJDQBMJ79ftDVPmQGl-10" value="Send request to backend with shielding enabled" style="rounded=1;whiteSpace=wrap;html=1;" vertex="1" parent="1">
          <mxGeometry x="556.5" y="1800" width="165" height="60" as="geometry" />
        </mxCell>
        <mxCell id="TUgJDQBMJ79ftDVPmQGl-15" style="edgeStyle=orthogonalEdgeStyle;rounded=0;orthogonalLoop=1;jettySize=auto;html=1;" edge="1" parent="1" source="TUgJDQBMJ79ftDVPmQGl-11" target="gJauoqbGneYXJqvQxOEP-80">
          <mxGeometry relative="1" as="geometry" />
        </mxCell>
        <mxCell id="TUgJDQBMJ79ftDVPmQGl-16" value="No" style="edgeLabel;html=1;align=center;verticalAlign=middle;resizable=0;points=[];" vertex="1" connectable="0" parent="TUgJDQBMJ79ftDVPmQGl-15">
          <mxGeometry x="-0.2791" y="1" relative="1" as="geometry">
            <mxPoint as="offset" />
          </mxGeometry>
        </mxCell>
        <mxCell id="TUgJDQBMJ79ftDVPmQGl-32" style="edgeStyle=orthogonalEdgeStyle;rounded=0;orthogonalLoop=1;jettySize=auto;html=1;" edge="1" parent="1" source="TUgJDQBMJ79ftDVPmQGl-11" target="TUgJDQBMJ79ftDVPmQGl-31">
          <mxGeometry relative="1" as="geometry" />
        </mxCell>
        <mxCell id="TUgJDQBMJ79ftDVPmQGl-11" value="Shielding required?" style="rhombus;whiteSpace=wrap;html=1;" vertex="1" parent="1">
          <mxGeometry x="590" y="1340" width="80" height="80" as="geometry" />
        </mxCell>
        <mxCell id="TUgJDQBMJ79ftDVPmQGl-22" style="edgeStyle=orthogonalEdgeStyle;rounded=0;orthogonalLoop=1;jettySize=auto;html=1;" edge="1" parent="1" source="TUgJDQBMJ79ftDVPmQGl-18" target="TUgJDQBMJ79ftDVPmQGl-2">
          <mxGeometry relative="1" as="geometry" />
        </mxCell>
        <mxCell id="TUgJDQBMJ79ftDVPmQGl-23" value="No" style="edgeLabel;html=1;align=center;verticalAlign=middle;resizable=0;points=[];" vertex="1" connectable="0" parent="TUgJDQBMJ79ftDVPmQGl-22">
          <mxGeometry x="0.3429" y="1" relative="1" as="geometry">
            <mxPoint as="offset" />
          </mxGeometry>
        </mxCell>
        <mxCell id="TUgJDQBMJ79ftDVPmQGl-27" style="edgeStyle=orthogonalEdgeStyle;rounded=0;orthogonalLoop=1;jettySize=auto;html=1;" edge="1" parent="1" source="TUgJDQBMJ79ftDVPmQGl-18" target="TUgJDQBMJ79ftDVPmQGl-25">
          <mxGeometry relative="1" as="geometry" />
        </mxCell>
        <mxCell id="TUgJDQBMJ79ftDVPmQGl-40" value="Yes" style="edgeLabel;html=1;align=center;verticalAlign=middle;resizable=0;points=[];" vertex="1" connectable="0" parent="TUgJDQBMJ79ftDVPmQGl-27">
          <mxGeometry x="0.5795" y="-3" relative="1" as="geometry">
            <mxPoint as="offset" />
          </mxGeometry>
        </mxCell>
        <mxCell id="TUgJDQBMJ79ftDVPmQGl-18" value="Shielding Required?" style="rhombus;whiteSpace=wrap;html=1;fillColor=#F8CECC;" vertex="1" parent="1">
          <mxGeometry x="1035" y="940" width="80" height="80" as="geometry" />
        </mxCell>
        <mxCell id="TUgJDQBMJ79ftDVPmQGl-37" style="edgeStyle=orthogonalEdgeStyle;rounded=0;orthogonalLoop=1;jettySize=auto;html=1;" edge="1" parent="1" source="TUgJDQBMJ79ftDVPmQGl-19" target="TUgJDQBMJ79ftDVPmQGl-18">
          <mxGeometry relative="1" as="geometry" />
        </mxCell>
        <mxCell id="TUgJDQBMJ79ftDVPmQGl-19" value="Run code build/ terraform apply" style="rounded=1;whiteSpace=wrap;html=1;fillColor=#F8CECC;" vertex="1" parent="1">
          <mxGeometry x="994.37" y="850" width="161.25" height="50" as="geometry" />
        </mxCell>
        <mxCell id="TUgJDQBMJ79ftDVPmQGl-21" value="Old AWS record state should be deleted or ignored (already been edited in yellow step above)" style="rounded=1;whiteSpace=wrap;html=1;fillColor=#F8CECC;" vertex="1" parent="1">
          <mxGeometry x="880" y="1159" width="190" height="70" as="geometry" />
        </mxCell>
        <mxCell id="TUgJDQBMJ79ftDVPmQGl-29" style="edgeStyle=orthogonalEdgeStyle;rounded=0;orthogonalLoop=1;jettySize=auto;html=1;" edge="1" parent="1" source="TUgJDQBMJ79ftDVPmQGl-25" target="TUgJDQBMJ79ftDVPmQGl-28">
          <mxGeometry relative="1" as="geometry" />
        </mxCell>
        <mxCell id="TUgJDQBMJ79ftDVPmQGl-25" value="Deliver service updated with:&lt;br&gt;- New hashed domain&lt;br&gt;- Shielded backends for all functions&lt;br&gt;- VCL routing for backends" style="rounded=1;whiteSpace=wrap;html=1;fillColor=#F8CECC;" vertex="1" parent="1">
          <mxGeometry x="1120" y="1055" width="230" height="60" as="geometry" />
        </mxCell>
        <mxCell id="TUgJDQBMJ79ftDVPmQGl-35" style="edgeStyle=orthogonalEdgeStyle;rounded=0;orthogonalLoop=1;jettySize=auto;html=1;" edge="1" parent="1" source="TUgJDQBMJ79ftDVPmQGl-28" target="TUgJDQBMJ79ftDVPmQGl-34">
          <mxGeometry relative="1" as="geometry" />
        </mxCell>
        <mxCell id="TUgJDQBMJ79ftDVPmQGl-28" value="Old AWS record state should be updated" style="rounded=1;whiteSpace=wrap;html=1;fillColor=#F8CECC;" vertex="1" parent="1">
          <mxGeometry x="1140" y="1159" width="190" height="70" as="geometry" />
        </mxCell>
        <mxCell id="TUgJDQBMJ79ftDVPmQGl-39" style="edgeStyle=orthogonalEdgeStyle;rounded=0;orthogonalLoop=1;jettySize=auto;html=1;" edge="1" parent="1" source="TUgJDQBMJ79ftDVPmQGl-31" target="TUgJDQBMJ79ftDVPmQGl-9">
          <mxGeometry relative="1" as="geometry" />
        </mxCell>
        <mxCell id="TUgJDQBMJ79ftDVPmQGl-31" value="Update request to point to new host" style="rounded=1;whiteSpace=wrap;html=1;" vertex="1" parent="1">
          <mxGeometry x="547.5" y="1490" width="165" height="60" as="geometry" />
        </mxCell>
        <mxCell id="TUgJDQBMJ79ftDVPmQGl-34" value="Route KV store updated with new host for affected routes" style="rounded=1;whiteSpace=wrap;html=1;fillColor=#F8CECC;" vertex="1" parent="1">
          <mxGeometry x="1140" y="1270" width="190" height="70" as="geometry" />
        </mxCell>
        <mxCell id="TUgJDQBMJ79ftDVPmQGl-38" value="This will mean that shielding is disabled&lt;br&gt;until the route store is updated once more." style="shape=curlyBracket;html=1;rounded=1;flipH=1;labelPosition=right;verticalLabelPosition=middle;align=left;verticalAlign=middle;" vertex="1" parent="1">
          <mxGeometry x="1360" y="1055" width="30" height="285" as="geometry" />
        </mxCell>
      </root>
    </mxGraphModel>
  </diagram>
</mxfile>
